<svg xmlns="http://www.w3.org/2000/svg" viewBox="0 0 36 36"><g transform="translate(-.472 .117)"><path fill="#662113" d="M22.088 32.83c0 1.997-1.619 2.712-3.616 2.712s-3.616-.715-3.616-2.712l.904-8.136c0-1.996.715-1.808 2.712-1.808s2.712-.188 2.712 1.808z"/><path fill="#5c913b" d="M30.59 27.675c-6.294-5.392-8.843-13.112-12.118-13.112s-5.824 7.721-12.118 13.112c-2.645 2.266-1.385 3.577 2.241 3.314 3.232-.233 6.255-.966 9.877-.966s6.646.733 9.876.966c3.627.263 4.886-1.049 2.242-3.314z"/><path fill="#3e721d" d="M28.546 25.538c-4.837-4.435-7.555-10.787-10.074-10.787s-5.236 6.352-10.073 10.787c-3.844 3.524 5.037 4.315 10.073 0 5.034 4.316 13.917 3.524 10.074 0z"/><path fill="#5c913b" d="M28.546 21.945c-4.837-4.143-7.555-10.077-10.074-10.077s-5.236 5.934-10.073 10.077c-3.844 3.292 5.037 4.031 10.073 0 5.034 4.032 13.917 3.292 10.074 0z"/><path fill="#3e721d" d="M26.336 19.003c-3.775-3.235-5.897-7.868-7.864-7.868s-4.088 4.632-7.864 7.868c-3 2.57 3.932 3.147 7.864 0 3.93 3.146 10.865 2.57 7.864 0z"/><path fill="#5c913b" d="M26.336 16.311c-3.775-3.235-5.897-7.867-7.864-7.867s-4.088 4.632-7.864 7.867c-3 2.571 3.932 3.147 7.864 0 3.93 3.147 10.865 2.571 7.864 0z"/><use href="#A" fill="#3e721d"/><use href="#A" y="-2.026" fill="#5c913b"/><path fill="#3e721d" d="M23.301 8.911C20.983 6.925 19.68 4.08 18.472 4.08s-2.511 2.845-4.83 4.831c-1.843 1.579 2.415 1.933 4.83 0 2.414 1.933 6.673 1.579 4.829 0z"/><path fill="#5c913b" d="M23.301 7.832C20.983 5.845 19.68 3 18.472 3s-2.511 2.845-4.83 4.832c-1.843 1.579 2.415 1.933 4.83 0 2.414 1.932 6.673 1.578 4.829 0z"/><circle fill="#ffcc4d" cx="9.332" cy="30.047" r=".5"/><circle fill="#ffac33" cx="27.413" cy="30.04" r=".5"/><circle fill="#a6d388" cx="20" cy="7.5" r=".5"/><g fill="#dd2e44"><circle cx="16.774" cy="8" r=".5"/><circle cx="24.5" cy="28.5" r=".5"/></g><circle fill="#9b59b6" cx="22" cy="9" r=".5"/><g fill="#3498db"><circle cx="18" cy="10" r=".5"/><circle cx="11.784" cy="28.518" r=".5"/><circle cx="18.381" cy="23.897" r=".5"/></g><circle fill="#ffcc4d" cx="21.302" cy="11.06" r=".5"/><g fill="#e74c3c"><circle cx="14.643" cy="12.817" r=".5"/><circle cx="11.077" cy="20.89" r=".5"/></g><circle fill="#2ecc71" cx="19" cy="13" r=".5"/><g fill="#3498db"><circle cx="22" cy="14.5" r=".5"/><circle cx="18.755" cy="18.493" r=".5"/></g><circle fill="#9b59b6" cx="17" cy="15" r=".5"/><circle fill="#ffac33" cx="20" cy="16" r=".5"/><circle fill="#ffcc4d" cx="14.754" cy="15.378" r=".5"/><g fill="#e67e22"><circle cx="23" cy="18" r=".5"/><circle cx="12.5" cy="22.5" r=".5"/></g><circle fill="#a6d388" cx="16" cy="19" r=".5"/><circle fill="#e74c3c" cx="21" cy="20" r=".5"/><g fill="#2ecc71"><circle cx="18" cy="21.5" r=".5"/><circle cx="26.5" cy="22.5" r=".5"/></g><g fill="#ffcc4d"><circle cx="15" cy="22" r=".5"/><circle cx="12.723" cy="12.424" r=".5"/><circle cx="10.731" cy="23.849" r=".5"/></g><g fill="#3498db"><circle cx="23.802" cy="22.469" r=".5"/><circle cx="6.5" cy="29.5" r=".5"/></g><circle fill="#ffac33" cx="24.835" cy="20.291" r=".5"/><g fill="#9b59b6"><circle cx="20" cy="25.5" r=".5"/><circle cx="15.282" cy="10.004" r=".5"/><circle cx="13.538" cy="18.855" r=".5"/><circle cx="24.778" cy="25.49" r=".5"/><circle cx="11.5" cy="25.5" r=".5"/></g><g fill="#e67e22"><circle cx="14" cy="26" r=".5"/><circle cx="28.5" cy="23.5" r=".5"/></g><g fill="#a6d388"><circle cx="22" cy="27" r=".5"/><circle cx="20.366" cy="22.026" r=".5"/><circle cx="8.659" cy="22.837" r=".5"/></g><g fill="#e74c3c"><circle cx="18" cy="28" r=".5"/><circle cx="29.183" cy="28.341" r=".5"/><circle cx="16.556" cy="24.771" r=".5"/></g><g fill="#ffcc4d"><circle cx="15.048" cy="28.623" r=".5"/><circle cx="16.5" cy="11.5" r=".5"/></g><g fill="#2ecc71"><circle cx="9.043" cy="27.64" r=".5"/><circle cx="12.434" cy="16.983" r=".5"/><circle cx="22.059" cy="23.3" r=".5"/></g><circle fill="#3498db" cx="26.693" cy="27.073" r=".5"/><path fill="#ffac33" d="M19.379 1.679a1.34 1.34 0 0 0 .817.609l1.379.269c.305.06.377.29.159.512l-.983 1.004c-.217.222-.365.657-.326.965l.17 1.394c.038.309-.159.448-.438.31L18.9 6.117a1.34 1.34 0 0 0-1.02-.013l-1.274.594c-.282.13-.476-.014-.43-.322l.205-1.39c.045-.307-.091-.745-.302-.973l-.959-1.027c-.212-.227-.135-.457.172-.508l1.385-.234a1.33 1.33 0 0 0 .832-.588L18.19.427c.151-.272.394-.269.537.006z"/><circle fill="#e74c3c" cx="25.242" cy="16.746" r=".5"/><g fill="#2ecc71"><circle cx="20.44" cy="29.044" r=".5"/><circle cx="23.5" cy="12.5" r=".5"/></g></g><defs><path id="A" d="M24.818 13.92c-3.047-2.61-4.76-6.349-6.347-6.349s-3.299 3.739-6.347 6.349c-2.422 2.075 3.174 2.54 6.347 0 3.174 2.54 8.77 2.075 6.347 0z"/></defs></svg>
