<svg xmlns="http://www.w3.org/2000/svg" viewBox="0 0 36 36"><g fill="none" stroke="#000" stroke-width=".5"><path d="M18.001 30.19c-1.163 0-2.26.079-3.326.189l-.291 2.617c0 1.997 1.62 2.713 3.617 2.713s3.615-.716 3.615-2.713l-.291-2.617z"/><path d="M15.919 4.942c-.749.942-1.63 2.099-2.748 3.056-.627.537-.539.929-.066 1.141-.655.602-.397 1.012.297 1.176-.533.602-1.111 1.199-1.75 1.746-1.013.868-.613 1.448.416 1.65l-.416.375c-.675.579-.726 1.032-.381 1.33l-1.135 1.061c-1.31 1.123-.725 1.864.676 2.082l-.676.611c-.706.605-.856 1.096-.631 1.457l-1.578 1.484c-1.702 1.458-.906 2.412.943 2.676l-.943.916c-.389.356-.64.684-.785.982l-1.26 1.156c-2.645 2.266-1.384 3.575 2.242 3.313 3.232-.233 6.255-.965 9.877-.965s6.645.732 9.875.965c3.627.263 4.886-1.047 2.242-3.312l-1.256-1.156c-.145-.298-.398-.626-.787-.982l-.941-.914c1.847-.265 2.642-1.221.941-2.678l-1.58-1.484c.225-.361.075-.852-.631-1.457l-.676-.611c1.401-.218 1.986-.959.676-2.082l-1.135-1.062c.343-.298.292-.751-.383-1.328l-.414-.375c1.028-.203 1.427-.783.414-1.65-.639-.547-1.217-1.144-1.75-1.746.696-.163.956-.575.299-1.178.473-.212.561-.602-.066-1.139-1.175-1.007-2.089-2.235-2.862-3.201"/></g><circle cx="8.86" cy="30.213" r=".5"/><circle cx="26.941" cy="30.206" r=".5"/><circle cx="19.528" cy="7.666" r=".5"/><circle cx="16.302" cy="8.166" r=".5"/><circle cx="24.028" cy="28.666" r=".5"/><circle cx="21.528" cy="9.166" r=".5"/><circle cx="17.528" cy="10.166" r=".5"/><circle cx="11.312" cy="28.684" r=".5"/><circle cx="17.909" cy="24.063" r=".5"/><circle cx="20.83" cy="11.226" r=".5"/><circle cx="14.171" cy="12.983" r=".5"/><circle cx="10.605" cy="21.056" r=".5"/><circle cx="18.528" cy="13.166" r=".5"/><circle cx="21.528" cy="14.666" r=".5"/><circle cx="18.283" cy="18.659" r=".5"/><circle cx="16.528" cy="15.166" r=".5"/><circle cx="19.528" cy="16.166" r=".5"/><circle cx="14.282" cy="15.544" r=".5"/><circle cx="22.528" cy="18.166" r=".5"/><circle cx="12.028" cy="22.666" r=".5"/><circle cx="15.528" cy="19.166" r=".5"/><circle cx="20.528" cy="20.166" r=".5"/><circle cx="17.528" cy="21.666" r=".5"/><circle cx="26.028" cy="22.666" r=".5"/><circle cx="14.528" cy="22.166" r=".5"/><circle cx="12.251" cy="12.59" r=".5"/><circle cx="10.259" cy="24.015" r=".5"/><circle cx="23.33" cy="22.635" r=".5"/><circle cx="6.028" cy="29.666" r=".5"/><circle cx="24.363" cy="20.457" r=".5"/><circle cx="19.528" cy="25.666" r=".5"/><circle cx="14.81" cy="10.17" r=".5"/><circle cx="13.066" cy="19.021" r=".5"/><circle cx="24.306" cy="25.656" r=".5"/><circle cx="11.028" cy="25.666" r=".5"/><circle cx="13.528" cy="26.166" r=".5"/><circle cx="28.028" cy="23.666" r=".5"/><circle cx="21.528" cy="27.166" r=".5"/><circle cx="19.894" cy="22.192" r=".5"/><circle cx="8.187" cy="23.003" r=".5"/><circle cx="17.528" cy="28.166" r=".5"/><circle cx="28.711" cy="28.507" r=".5"/><circle cx="16.084" cy="24.937" r=".5"/><circle cx="14.576" cy="28.789" r=".5"/><circle cx="16.028" cy="11.666" r=".5"/><circle cx="8.571" cy="27.806" r=".5"/><circle cx="11.962" cy="17.149" r=".5"/><circle cx="21.587" cy="23.466" r=".5"/><circle cx="26.221" cy="27.239" r=".5"/><circle cx="24.77" cy="16.912" r=".5"/><circle cx="19.968" cy="29.21" r=".5"/><circle cx="23.028" cy="12.666" r=".5"/><path fill="none" d="M18.907 1.745a1.34 1.34 0 0 0 .817.609l1.379.269c.305.06.377.29.159.512l-.983 1.004c-.217.222-.365.657-.326.965l.17 1.394c.038.309-.159.448-.438.31l-1.257-.625a1.34 1.34 0 0 0-1.02-.013l-1.274.594c-.282.13-.476-.014-.43-.322l.205-1.39c.045-.307-.091-.745-.302-.973l-.959-1.027c-.212-.227-.135-.457.172-.508l1.385-.234a1.33 1.33 0 0 0 .832-.588l.681-1.229c.151-.272.394-.269.537.006z" stroke="#000" stroke-width=".5"/></svg>
